STARTFONT 2.1
COMMENT Created by fdbbdf
FONT times14
SIZE 14 78 78
FONTBOUNDINGBOX 16 16 0 -5
STARTPROPERTIES 4
Ownership "  Copyright (c) 1984 Adobe Systems, Inc.  allchars 75orig/TR16.bits  WIDTHERR -177 -130  GUIDELINES -4 0 8 11 DONE  TOTAL BITMAP BYTES 2880  "
FONT_ASCENT 11
FONT_DESCENT 5
DEFAULT_CHAR 32
ENDPROPERTIES
CHARS 95
STARTCHAR sp
ENCODING -1 32
SWIDTH 0 0
DWIDTH 4 0
BBX 3 1 1 -1
BITMAP
0000
ENDCHAR
STARTCHAR !
ENCODING -1 33
SWIDTH 0 0
DWIDTH 4 0
BBX 3 11 1 -1
BITMAP
6000
6000
6000
6000
6000
6000
2000
2000
0000
6000
6000
ENDCHAR
STARTCHAR "
ENCODING -1 34
SWIDTH 0 0
DWIDTH 7 0
BBX 5 3 1 8
BITMAP
d800
d800
9000
ENDCHAR
STARTCHAR #
ENCODING -1 35
SWIDTH 0 0
DWIDTH 10 0
BBX 8 11 1 -1
BITMAP
1200
1200
1200
7f00
2400
2400
2400
fe00
4800
4800
4800
ENDCHAR
STARTCHAR $
ENCODING -1 36
SWIDTH 0 0
DWIDTH 9 0
BBX 7 13 1 -2
BITMAP
1000
7e00
d600
d200
f000
7800
3c00
1e00
1600
9600
d600
fc00
1000
ENDCHAR
STARTCHAR %
ENCODING -1 37
SWIDTH 0 0
DWIDTH 13 0
BBX 11 11 1 -1
BITMAP
7180
cf00
8a00
8a00
dc00
75c0
0b20
0a20
1220
1360
21c0
ENDCHAR
STARTCHAR &
ENCODING -1 38
SWIDTH 0 0
DWIDTH 12 0
BBX 10 11 1 -1
BITMAP
1c00
3200
3200
3400
1dc0
3880
6d00
c700
c200
ef00
79c0
ENDCHAR
STARTCHAR '
ENCODING -1 39
SWIDTH 0 0
DWIDTH 5 0
BBX 3 4 1 6
BITMAP
6000
6000
2000
4000
ENDCHAR
STARTCHAR (
ENCODING -1 40
SWIDTH 0 0
DWIDTH 7 0
BBX 5 15 1 -5
BITMAP
0800
1000
2000
6000
4000
c000
c000
c000
c000
c000
4000
6000
2000
1000
0800
ENDCHAR
STARTCHAR )
ENCODING -1 41
SWIDTH 0 0
DWIDTH 7 0
BBX 5 15 1 -5
BITMAP
8000
4000
2000
3000
1000
1800
1800
1800
1800
1800
1000
3000
2000
4000
8000
ENDCHAR
STARTCHAR *
ENCODING -1 42
SWIDTH 0 0
DWIDTH 9 0
BBX 7 7 1 3
BITMAP
1000
9200
7c00
3800
7c00
9200
1000
ENDCHAR
STARTCHAR +
ENCODING -1 43
SWIDTH 0 0
DWIDTH 9 0
BBX 7 7 1 0
BITMAP
1000
1000
1000
fe00
1000
1000
1000
ENDCHAR
STARTCHAR ,
ENCODING -1 44
SWIDTH 0 0
DWIDTH 5 0
BBX 3 5 1 -3
BITMAP
0000
6000
6000
2000
4000
ENDCHAR
STARTCHAR -
ENCODING -1 45
SWIDTH 0 0
DWIDTH 6 0
BBX 6 1 0 3
BITMAP
7c00
ENDCHAR
STARTCHAR .
ENCODING -1 46
SWIDTH 0 0
DWIDTH 4 0
BBX 3 3 0 -1
BITMAP
0000
6000
6000
ENDCHAR
STARTCHAR /
ENCODING -1 47
SWIDTH 0 0
DWIDTH 7 0
BBX 5 11 1 -1
BITMAP
0800
0800
1800
1000
3000
2000
6000
4000
c000
8000
8000
ENDCHAR
STARTCHAR 0
ENCODING -1 48
SWIDTH 0 0
DWIDTH 10 0
BBX 8 11 1 -1
BITMAP
3c00
6600
4200
c300
c300
c300
c300
c300
4200
6600
3c00
ENDCHAR
STARTCHAR 1
ENCODING -1 49
SWIDTH 0 0
DWIDTH 8 0
BBX 6 11 1 -1
BITMAP
3000
7000
b000
3000
3000
3000
3000
3000
3000
3000
fc00
ENDCHAR
STARTCHAR 2
ENCODING -1 50
SWIDTH 0 0
DWIDTH 9 0
BBX 7 11 1 -1
BITMAP
7c00
ce00
c600
c600
0e00
0c00
1800
3000
4200
fe00
fc00
ENDCHAR
STARTCHAR 3
ENCODING -1 51
SWIDTH 0 0
DWIDTH 9 0
BBX 7 11 1 -1
BITMAP
3c00
6e00
4600
0600
0c00
3c00
0e00
0600
8600
cc00
7800
ENDCHAR
STARTCHAR 4
ENCODING -1 52
SWIDTH 0 0
DWIDTH 9 0
BBX 7 11 1 -1
BITMAP
0c00
1c00
1c00
2c00
2c00
4c00
4c00
fe00
0c00
0c00
0c00
ENDCHAR
STARTCHAR 5
ENCODING -1 53
SWIDTH 0 0
DWIDTH 9 0
BBX 7 11 1 -1
BITMAP
7e00
7c00
4000
4000
fc00
0e00
0600
0600
0600
cc00
7800
ENDCHAR
STARTCHAR 6
ENCODING -1 54
SWIDTH 0 0
DWIDTH 9 0
BBX 7 11 1 -1
BITMAP
1c00
6000
6000
c000
fc00
ce00
c600
c600
c600
6c00
3800
ENDCHAR
STARTCHAR 7
ENCODING -1 55
SWIDTH 0 0
DWIDTH 9 0
BBX 7 11 1 -1
BITMAP
7e00
fe00
8600
0400
0c00
0800
1800
1000
1000
3000
3000
ENDCHAR
STARTCHAR 8
ENCODING -1 56
SWIDTH 0 0
DWIDTH 9 0
BBX 7 11 1 -1
BITMAP
3c00
6600
c200
e200
f400
7c00
4e00
c600
c200
e600
7c00
ENDCHAR
STARTCHAR 9
ENCODING -1 57
SWIDTH 0 0
DWIDTH 9 0
BBX 7 11 1 -1
BITMAP
3800
6c00
c600
c600
c600
e600
7e00
0c00
0c00
1800
7000
ENDCHAR
STARTCHAR :
ENCODING -1 58
SWIDTH 0 0
DWIDTH 4 0
BBX 2 7 1 -1
BITMAP
c000
c000
0000
0000
0000
c000
c000
ENDCHAR
STARTCHAR ;
ENCODING -1 59
SWIDTH 0 0
DWIDTH 4 0
BBX 2 9 1 -3
BITMAP
c000
c000
0000
0000
0000
c000
c000
4000
8000
ENDCHAR
STARTCHAR <
ENCODING -1 60
SWIDTH 0 0
DWIDTH 11 0
BBX 9 9 1 -1
BITMAP
0080
0380
0e00
3800
e000
3800
0e00
0380
0080
ENDCHAR
STARTCHAR =
ENCODING -1 61
SWIDTH 0 0
DWIDTH 9 0
BBX 8 4 0 2
BITMAP
7f00
0000
0000
7f00
ENDCHAR
STARTCHAR >
ENCODING -1 62
SWIDTH 0 0
DWIDTH 11 0
BBX 9 9 1 -1
BITMAP
8000
e000
3800
0e00
0380
0e00
3800
e000
8000
ENDCHAR
STARTCHAR ?
ENCODING -1 63
SWIDTH 0 0
DWIDTH 8 0
BBX 6 11 1 -1
BITMAP
7800
cc00
8400
cc00
0c00
1800
1000
1000
0000
1000
1000
ENDCHAR
STARTCHAR @
ENCODING -1 64
SWIDTH 0 0
DWIDTH 14 0
BBX 12 14 1 -3
BITMAP
0780
1840
2020
46d0
4dd0
9990
9990
b310
b310
b3a0
9ec0
4000
2060
1f80
ENDCHAR
STARTCHAR A
ENCODING -1 65
SWIDTH 0 0
DWIDTH 13 0
BBX 11 11 1 -1
BITMAP
0400
0400
0e00
0e00
1300
1300
2180
3f80
40c0
40c0
f1e0
ENDCHAR
STARTCHAR B
ENCODING -1 66
SWIDTH 0 0
DWIDTH 11 0
BBX 9 11 1 -1
BITMAP
fe00
6300
6300
6300
6600
7f00
6180
6180
6180
6300
fe00
ENDCHAR
STARTCHAR C
ENCODING -1 67
SWIDTH 0 0
DWIDTH 11 0
BBX 9 11 1 -1
BITMAP
1f80
7180
6080
c080
c000
c000
c000
c000
6080
7180
1e00
ENDCHAR
STARTCHAR D
ENCODING -1 68
SWIDTH 0 0
DWIDTH 12 0
BBX 10 11 1 -1
BITMAP
fe00
6380
6180
60c0
60c0
60c0
60c0
60c0
6180
6380
fe00
ENDCHAR
STARTCHAR E
ENCODING -1 69
SWIDTH 0 0
DWIDTH 10 0
BBX 8 11 1 -1
BITMAP
ff00
6300
6100
6000
6200
7e00
6200
6000
6100
6300
ff00
ENDCHAR
STARTCHAR F
ENCODING -1 70
SWIDTH 0 0
DWIDTH 10 0
BBX 8 11 1 -1
BITMAP
ff00
6300
6100
6000
6200
7e00
6200
6000
6000
6000
f000
ENDCHAR
STARTCHAR G
ENCODING -1 71
SWIDTH 0 0
DWIDTH 13 0
BBX 11 11 1 -1
BITMAP
1fc0
70c0
6040
c040
c000
c3e0
c0c0
c0c0
60c0
70c0
1f80
ENDCHAR
STARTCHAR H
ENCODING -1 72
SWIDTH 0 0
DWIDTH 12 0
BBX 10 11 1 -1
BITMAP
f3c0
6180
6180
6180
6180
7f80
6180
6180
6180
6180
f3c0
ENDCHAR
STARTCHAR I
ENCODING -1 73
SWIDTH 0 0
DWIDTH 6 0
BBX 4 11 1 -1
BITMAP
f000
6000
6000
6000
6000
6000
6000
6000
6000
6000
f000
ENDCHAR
STARTCHAR J
ENCODING -1 74
SWIDTH 0 0
DWIDTH 8 0
BBX 6 11 1 -1
BITMAP
3c00
1800
1800
1800
1800
1800
1800
d800
d800
9800
7000
ENDCHAR
STARTCHAR K
ENCODING -1 75
SWIDTH 0 0
DWIDTH 11 0
BBX 10 11 1 -1
BITMAP
f380
6100
6200
6400
6800
7800
7c00
6e00
6700
6380
f3c0
ENDCHAR
STARTCHAR L
ENCODING -1 76
SWIDTH 0 0
DWIDTH 10 0
BBX 8 11 1 -1
BITMAP
f000
6000
6000
6000
6000
6000
6000
6000
6100
6300
ff00
ENDCHAR
STARTCHAR M
ENCODING -1 77
SWIDTH 0 0
DWIDTH 14 0
BBX 12 11 1 -1
BITMAP
f0f0
70e0
70e0
79e0
5960
5b60
4e60
4e60
4460
4460
e0f0
ENDCHAR
STARTCHAR N
ENCODING -1 78
SWIDTH 0 0
DWIDTH 12 0
BBX 10 11 1 -1
BITMAP
e1c0
6080
7080
7880
5c80
4e80
4780
4380
4180
4080
e080
ENDCHAR
STARTCHAR O
ENCODING -1 79
SWIDTH 0 0
DWIDTH 13 0
BBX 11 11 1 -1
BITMAP
1f00
71c0
60c0
c060
c060
c060
c060
c060
60c0
71c0
1f00
ENDCHAR
STARTCHAR P
ENCODING -1 80
SWIDTH 0 0
DWIDTH 10 0
BBX 9 11 1 -1
BITMAP
fe00
6700
6300
6300
6300
6700
7e00
6000
6000
6000
f000
ENDCHAR
STARTCHAR Q
ENCODING -1 81
SWIDTH 0 0
DWIDTH 13 0
BBX 11 14 1 -4
BITMAP
1f00
71c0
60c0
c060
c060
c060
c060
c060
60c0
71c0
1f00
0600
0700
03c0
ENDCHAR
STARTCHAR R
ENCODING -1 82
SWIDTH 0 0
DWIDTH 11 0
BBX 10 11 1 -1
BITMAP
fe00
6700
6300
6300
6700
7e00
6c00
6600
6300
6180
f1c0
ENDCHAR
STARTCHAR S
ENCODING -1 83
SWIDTH 0 0
DWIDTH 9 0
BBX 7 11 1 -1
BITMAP
3e00
6600
c200
e200
7800
3c00
0e00
8600
8600
ce00
fc00
ENDCHAR
STARTCHAR T
ENCODING -1 84
SWIDTH 0 0
DWIDTH 10 0
BBX 10 11 1 -1
BITMAP
ffc0
ccc0
8c40
0c00
0c00
0c00
0c00
0c00
0c00
0c00
1e00
ENDCHAR
STARTCHAR U
ENCODING -1 85
SWIDTH 0 0
DWIDTH 12 0
BBX 10 11 1 -1
BITMAP
f1c0
6080
6080
6080
6080
6080
6080
6080
6080
3100
1e00
ENDCHAR
STARTCHAR V
ENCODING -1 86
SWIDTH 0 0
DWIDTH 13 0
BBX 11 11 1 -1
BITMAP
f0e0
6040
6040
3080
3080
1900
1900
0e00
0e00
0400
0400
ENDCHAR
STARTCHAR W
ENCODING -1 87
SWIDTH 0 0
DWIDTH 17 0
BBX 15 11 1 -1
BITMAP
f78e
6304
6304
3188
3188
19c8
1ad0
0e70
0c60
0420
0420
ENDCHAR
STARTCHAR X
ENCODING -1 88
SWIDTH 0 0
DWIDTH 13 0
BBX 12 11 1 -1
BITMAP
f9e0
7080
3900
1e00
0e00
0600
0f00
0b80
11c0
20e0
f1f0
ENDCHAR
STARTCHAR Y
ENCODING -1 89
SWIDTH 0 0
DWIDTH 10 0
BBX 10 11 1 -1
BITMAP
f1c0
6080
3100
3a00
1a00
0c00
0c00
0c00
0c00
0c00
1e00
ENDCHAR
STARTCHAR Z
ENCODING -1 90
SWIDTH 0 0
DWIDTH 11 0
BBX 9 11 1 -1
BITMAP
7f80
6380
4700
0e00
0c00
1c00
3800
3000
6080
e180
ff80
ENDCHAR
STARTCHAR [
ENCODING -1 91
SWIDTH 0 0
DWIDTH 6 0
BBX 4 14 1 -4
BITMAP
f000
c000
c000
c000
c000
c000
c000
c000
c000
c000
c000
c000
c000
f000
ENDCHAR
STARTCHAR \
ENCODING -1 92
SWIDTH 0 0
DWIDTH 8 0
BBX 6 11 1 -1
BITMAP
8000
c000
4000
6000
2000
3000
1000
1800
0800
0c00
0400
ENDCHAR
STARTCHAR ]
ENCODING -1 93
SWIDTH 0 0
DWIDTH 6 0
BBX 4 14 1 -4
BITMAP
f000
3000
3000
3000
3000
3000
3000
3000
3000
3000
3000
3000
3000
f000
ENDCHAR
STARTCHAR ^
ENCODING -1 94
SWIDTH 0 0
DWIDTH 8 0
BBX 7 7 0 3
BITMAP
1000
2800
2800
4400
4400
8200
8200
ENDCHAR
STARTCHAR _
ENCODING -1 95
SWIDTH 0 0
DWIDTH 8 0
BBX 9 3 1 -4
BITMAP
0000
0000
ff80
ENDCHAR
STARTCHAR `
ENCODING -1 96
SWIDTH 0 0
DWIDTH 5 0
BBX 2 4 1 6
BITMAP
4000
8000
c000
c000
ENDCHAR
STARTCHAR a
ENCODING -1 97
SWIDTH 0 0
DWIDTH 8 0
BBX 7 8 1 -1
BITMAP
7800
cc00
0c00
7c00
cc00
cc00
cc00
7600
ENDCHAR
STARTCHAR b
ENCODING -1 98
SWIDTH 0 0
DWIDTH 9 0
BBX 8 11 1 -1
BITMAP
e000
6000
6000
6c00
7600
6300
6300
6300
6300
7600
5c00
ENDCHAR
STARTCHAR c
ENCODING -1 99
SWIDTH 0 0
DWIDTH 7 0
BBX 6 8 1 -1
BITMAP
3c00
6400
c000
c000
c000
c000
6400
3800
ENDCHAR
STARTCHAR d
ENCODING -1 100
SWIDTH 0 0
DWIDTH 8 0
BBX 7 11 1 -1
BITMAP
0e00
0600
0600
3600
6e00
c600
c600
c600
c600
6e00
3a00
ENDCHAR
STARTCHAR e
ENCODING -1 101
SWIDTH 0 0
DWIDTH 7 0
BBX 6 8 1 -1
BITMAP
3800
4c00
c400
fc00
c000
c000
6400
3800
ENDCHAR
STARTCHAR f
ENCODING -1 102
SWIDTH 0 0
DWIDTH 6 0
BBX 5 11 1 -1
BITMAP
3800
6800
6000
6000
f000
6000
6000
6000
6000
6000
f000
ENDCHAR
STARTCHAR g
ENCODING -1 103
SWIDTH 0 0
DWIDTH 8 0
BBX 7 12 1 -5
BITMAP
7e00
cc00
cc00
cc00
c800
7000
4000
7c00
fe00
8200
c400
7800
ENDCHAR
STARTCHAR h
ENCODING -1 104
SWIDTH 0 0
DWIDTH 9 0
BBX 8 11 1 -1
BITMAP
e000
6000
6000
6c00
7600
6600
6600
6600
6600
6600
f700
ENDCHAR
STARTCHAR i
ENCODING -1 105
SWIDTH 0 0
DWIDTH 5 0
BBX 4 11 1 -1
BITMAP
6000
6000
0000
e000
6000
6000
6000
6000
6000
6000
f000
ENDCHAR
STARTCHAR j
ENCODING -1 106
SWIDTH 0 0
DWIDTH 5 0
BBX 4 15 0 -5
BITMAP
3000
3000
0000
7000
3000
3000
3000
3000
3000
3000
3000
3000
3000
a000
c000
ENDCHAR
STARTCHAR k
ENCODING -1 107
SWIDTH 0 0
DWIDTH 9 0
BBX 8 11 1 -1
BITMAP
e000
6000
6000
6600
6400
6800
7000
7800
6c00
6600
f700
ENDCHAR
STARTCHAR l
ENCODING -1 108
SWIDTH 0 0
DWIDTH 5 0
BBX 4 11 1 -1
BITMAP
e000
6000
6000
6000
6000
6000
6000
6000
6000
6000
f000
ENDCHAR
STARTCHAR m
ENCODING -1 109
SWIDTH 0 0
DWIDTH 13 0
BBX 12 8 1 -1
BITMAP
ddc0
6660
6660
6660
6660
6660
6660
f770
ENDCHAR
STARTCHAR n
ENCODING -1 110
SWIDTH 0 0
DWIDTH 9 0
BBX 8 8 1 -1
BITMAP
dc00
6600
6600
6600
6600
6600
6600
f700
ENDCHAR
STARTCHAR o
ENCODING -1 111
SWIDTH 0 0
DWIDTH 8 0
BBX 7 8 1 -1
BITMAP
3800
6c00
c600
c600
c600
c600
6c00
3800
ENDCHAR
STARTCHAR p
ENCODING -1 112
SWIDTH 0 0
DWIDTH 9 0
BBX 8 12 1 -5
BITMAP
dc00
7600
6300
6300
6300
6300
7600
6c00
6000
6000
6000
f000
ENDCHAR
STARTCHAR q
ENCODING -1 113
SWIDTH 0 0
DWIDTH 9 0
BBX 8 12 1 -5
BITMAP
3e00
6600
c600
c600
c600
c600
6e00
3600
0600
0600
0600
0f00
ENDCHAR
STARTCHAR r
ENCODING -1 114
SWIDTH 0 0
DWIDTH 7 0
BBX 6 8 1 -1
BITMAP
dc00
6c00
6000
6000
6000
6000
6000
f000
ENDCHAR
STARTCHAR s
ENCODING -1 115
SWIDTH 0 0
DWIDTH 6 0
BBX 5 8 1 -1
BITMAP
7800
c800
e000
7000
3800
9800
9800
f000
ENDCHAR
STARTCHAR t
ENCODING -1 116
SWIDTH 0 0
DWIDTH 6 0
BBX 5 10 1 -1
BITMAP
2000
6000
f000
6000
6000
6000
6000
6000
6800
3000
ENDCHAR
STARTCHAR u
ENCODING -1 117
SWIDTH 0 0
DWIDTH 9 0
BBX 8 8 1 -1
BITMAP
ee00
6600
6600
6600
6600
6600
6600
3b00
ENDCHAR
STARTCHAR v
ENCODING -1 118
SWIDTH 0 0
DWIDTH 9 0
BBX 8 8 1 -1
BITMAP
f700
6200
6200
3400
3400
1c00
1800
0800
ENDCHAR
STARTCHAR w
ENCODING -1 119
SWIDTH 0 0
DWIDTH 12 0
BBX 11 8 1 -1
BITMAP
eee0
6440
6440
3680
3680
3b80
1900
1100
ENDCHAR
STARTCHAR x
ENCODING -1 120
SWIDTH 0 0
DWIDTH 9 0
BBX 8 8 1 -1
BITMAP
e700
6200
3400
1800
1800
2c00
4600
ef00
ENDCHAR
STARTCHAR y
ENCODING -1 121
SWIDTH 0 0
DWIDTH 9 0
BBX 8 12 1 -5
BITMAP
f700
6200
6200
3600
3400
1c00
1800
0800
0800
1000
d000
e000
ENDCHAR
STARTCHAR z
ENCODING -1 122
SWIDTH 0 0
DWIDTH 7 0
BBX 6 8 1 -1
BITMAP
fc00
8c00
1800
3000
3000
6000
c400
fc00
ENDCHAR
STARTCHAR {
ENCODING -1 123
SWIDTH 0 0
DWIDTH 6 0
BBX 5 15 1 -4
BITMAP
1800
3000
3000
3000
3000
3000
6000
c000
6000
3000
3000
3000
3000
3000
1800
ENDCHAR
STARTCHAR |
ENCODING -1 124
SWIDTH 0 0
DWIDTH 2 0
BBX 1 11 1 -1
BITMAP
8000
8000
8000
8000
8000
8000
8000
8000
8000
8000
8000
ENDCHAR
STARTCHAR }
ENCODING -1 125
SWIDTH 0 0
DWIDTH 7 0
BBX 5 15 1 -4
BITMAP
c000
6000
6000
6000
6000
6000
3000
1800
3000
6000
6000
6000
6000
6000
c000
ENDCHAR
STARTCHAR ~
ENCODING -1 126
SWIDTH 0 0
DWIDTH 9 0
BBX 7 2 1 2
BITMAP
7200
9c00
ENDCHAR
ENDFONT
